<?xml version="1.0" encoding="utf-8"?>
<!-- Generator: Adobe Illustrator 19.2.1, SVG Export Plug-In . SVG Version: 6.00 Build 0)  -->
<svg version="1.1" id="Warstwa_1" xmlns="http://www.w3.org/2000/svg" xmlns:xlink="http://www.w3.org/1999/xlink" x="0px" y="0px"
	 viewBox="0 0 1907.9 651" style="enable-background:new 0 0 1907.9 651;" xml:space="preserve">
<style type="text/css">
	.st0{fill:#D13239;}
	.st1{fill:#B3B2B1;}
</style>
<g>
	<polygon class="st0" points="403,374.4 559.4,374.2 553.7,409.8 422.9,534.7 532.7,534.5 526.3,572.9 364.6,573 371.4,533.3
		496.8,413.2 396.7,413.2 	"/>
	<path class="st0" d="M231.9,313.5c-3.4-3.6-8.3-6.4-13.7-8.6c-5.7-2.2-12-3.8-18.2-4.9c-7.8-1.4-15.4-2-20.8-2.2
		c-5-0.2-8.2-0.2-8.2-0.2h-68.4H51.7L6.1,573h42.6l16.8-102l82.6,0.4c0,0,32.2,1.3,55-10.8C225.9,448.5,232,421,232,421
		s2.5-10.2,4.6-22.6c2.3-13.7,4.6-30.1,5.8-38.8c0.5-3.8,0.8-6.2,0.8-6.2s0.6-2.8,0.6-7.2c0.1-6.1-0.8-15.3-5.6-24.1
		C236.5,319,234.5,316.2,231.9,313.5z M199.1,362.1c0,0.5-3.8,22.6-8.8,48.8c-1.9,10-9.6,15.4-18.4,17.3
		c-14.6,3.1-30.3,2.5-30.3,2.5l-69-0.2L87.8,339l62.5,0.2c0,0,4.2-0.1,10.1,0c6.7,0.1,15.6,0.4,22.9,1.4c6.3,0.8,11.3,2.1,12.9,4.1
		c2.1,2.6,2.9,6,3.2,9C199.8,358.1,199.1,361.8,199.1,362.1z"/>
	<polygon class="st0" points="771.5,297.6 812.5,297.6 766.6,573 725.5,572.9 	"/>
	<polygon class="st0" points="990.3,374.4 1029.6,374.3 1043.5,514.1 1104,374.1 1152.5,374.2 1166.8,514.6 1227.2,374.3
		1268,374.3 1181.4,572.8 1133,572.8 1119,433.8 1057.9,572.8 1010.3,573 	"/>
	<g>
		<path class="st0" d="M695.8,376c-11.5-3.7-31.4-4.5-48.3-4.3c-16.3,0.2-23.8,1-29.9,2.3c0,0-29,4.2-45.5,24.6s-21.4,65-21.4,65
			s-9.8,49.3-6.9,65.8c2.9,16.4,8,31.7,26.6,38.8c18.6,7.2,34.4,6.8,34.4,6.8s33.2,2.6,58.2-3.3c25-5.9,38.2-23.5,38.2-23.5
			s5.9-7.6,10.1-16.6c4.2-9,5.5-15.3,5.7-16.1l2.6-10.7l-42.5,0.1c0,0-2.3,28.1-25.3,30.7c-22.9,2.6-35.2,1.6-39.7,1.4
			c-4.4-0.2-29,0.9-27-19.7c0-0.3,0-0.7,0.1-1.3c1.1-23.4,3.7-29.5,3.7-29.5l133.5-0.4l5.7-33C734.7,415.7,730,387.2,695.8,376z
			 M686.9,448.4l-91.5-0.1l3.6-14.5c0,0,3.2-11.4,9.5-16.2c6.4-4.8,14.5-5.7,22.1-6.4c7.6-0.7,27.9-2.2,44.4,1.2
			c5.5,1.1,10.7,4.2,12.1,8.8C690.3,432,686.9,448.4,686.9,448.4z"/>
		<path class="st0" d="M585.4,516.4c0,0.3-0.1,0.6-0.1,0.9C585.2,518.9,585.4,516.3,585.4,516.4z"/>
	</g>
	<g>
		<path class="st0" d="M837.2,516.5c0,0.3-0.1,0.6-0.1,0.9C837.1,519,837.2,516.4,837.2,516.5z"/>
		<path class="st0" d="M947.7,376.1c-11.5-3.7-31.4-4.5-48.3-4.3c-16.3,0.2-23.8,1-29.9,2.3c0,0-29,4.2-45.5,24.6s-21.4,65-21.4,65
			s-9.8,49.3-6.9,65.8c2.9,16.4,8,31.7,26.6,38.8c18.6,7.2,34.4,6.8,34.4,6.8s33.2,2.6,58.2-3.3c25-5.9,38.2-23.5,38.2-23.5
			s5.9-7.6,10.1-16.6c4.2-9,5.5-15.3,5.7-16.1l2.6-10.7L929,505c0,0-2.3,28.1-25.3,30.7c-22.9,2.6-35.2,1.6-39.7,1.5
			c-4.4-0.2-29,0.8-27-19.7c0-0.3,0-0.7,0.1-1.3c1.1-23.4,3.7-29.5,3.7-29.5l133.5-0.4l5.7-33C986.6,415.8,981.9,387.2,947.7,376.1z
			 M938.4,448.4l-91.5-0.1l3.6-14.5c0,0,3.2-11.4,9.5-16.2c6.3-4.8,14.5-5.7,22.1-6.4c7.6-0.7,27.9-2.2,44.4,1.2
			c5.5,1.1,10.7,4.2,12.1,8.8C941.8,431.9,938.4,448.4,938.4,448.4z"/>
	</g>
	<path class="st0" d="M1315.2,374.4l26.3,145.2l74.3-145.3l41.8,0.4l-107.1,207.5c0,0-19.4,37.6-31.4,47.1s-19.4,13.8-29.2,14.8
		c-9.8,1-13.8,1.7-23.2,0l-10-1.8l6.2-37.1c0,0,16.6,3.1,26.4-0.8c9.9-3.9,17.8-20.7,17.8-20.7l5-8.4l-38.7-201L1315.2,374.4
		L1315.2,374.4z"/>
	<path class="st1" d="M1472.8,394.1l43.1,0.1l2.6-16.7c0,0,4.6-30.2,14.9-36c3.3-1.9,8.6-3.6,14.7-4.7c11.3-2,25.6-2.2,37.3-1.8
		c17.9,0.6,24.7,0.8,42.9,2.9c18.2,2.1,13.6,19.7,13.6,19.7l-3.6,26.3c0,0-1.6,11.8-5.8,19.1c-3.7,6.5-13.9,10.9-19.8,12.8
		c-14.2,4.6-62.8,17-62.8,17l-38.2,11c0,0-23.5,6.8-36.6,21.3c-13.2,14.6-18.4,31.1-20.2,39.7c-1.8,8.6-11.9,68.1-11.9,68.1
		l206.2,0.1l6.9-41.2L1493,532l2.9-16.8c0,0,1.9-17.3,8.9-23c2.2-1.8,3.3-4.2,16.3-8.8c7.8-2.8,34.4-9.9,34.4-9.9l61.5-16.8
		c0,0,33.6-8.6,46.8-27c13.2-18.3,18.3-53.4,18.3-53.4s3.6-34.1,0.8-44.8c-2.7-10.7-12.8-23.5-25.1-29c-12.3-5.5-25.1-8.7-62.2-8.2
		s-55.5,2.2-74.3,9.2c-18.8,6.9-29.7,19.5-36.6,37.3C1477.2,357.7,1472.8,394.1,1472.8,394.1L1472.8,394.1z"/>
	<path class="st1" d="M1861,470.7l28.9-173.2h-51.2l-159.4,171.2l-7.2,43.4h139.4l-10.2,60.8l42.8,0.1l10.1-60.9l39.5,0.1l7.1-41.5
		L1861,470.7z M1818.4,470.8l-90.1-0.1L1838,353.8L1818.4,470.8z"/>
	<path class="st1" d="M322.3,320.3h131.3c0,0,29.4-23.8,50.3-39.1c20.9-15.3,58.9-39.4,58.9-39.4l-74.2-34.7
		c0,0-62.7,38.8-89.3,57.1C373.5,281.1,322.3,320.3,322.3,320.3L322.3,320.3z"/>
	<path class="st1" d="M604.5,217.3l-60.9-41c0,0,55.1-31.3,128.4-60.5c73.2-29.2,112.3-41.4,112.3-41.4l12.4,58.1
		c0,0-70.5,23.6-110.9,42.7C644,193,604.5,217.3,604.5,217.3L604.5,217.3z"/>
	<path class="st1" d="M841.7,119.8l-10.6-59.5c0,0,75.2-20,144-32.8c68.9-12.8,160.2-18.9,160.2-18.9l-30.2,91.9
		c0,0-80.3-11-155.7-0.7C890.7,106.8,841.7,119.8,841.7,119.8L841.7,119.8z"/>
	<path class="st1" d="M1152.9,108.3l50.8-102.1c0,0,111.3-2.2,207.3,12.7c96,14.8,183.8,37.6,181.9,38.6l-243.4,127.3
		c0,0-56.9-36-127.5-58.1C1182,114.9,1152.9,108.3,1152.9,108.3L1152.9,108.3z"/>
	<path class="st1" d="M1393.1,212.5l53.5,40.6h439.7c0,0-0.9-14.2-12.6-34.4c-7.3-12.6-20.6-26-34.5-39.9
		c-5.1-5-25.3-20.8-40.5-30.7c-38.8-25.2-60.5-34.9-100.8-53.2L1393.1,212.5L1393.1,212.5z"/>
	<path class="st0" d="M350.8,374.2c-16.5,0-32.1,6.5-45.4,13.8l2.3-13.8H264l-35,197.7h43.8l19.4-109.5c4-22.2,20.6-49.7,53-49.7
		l22.6-0.1l6.8-38.4H350.8z"/>
</g>
</svg>
